<?xml version="1.0" encoding="utf-8"?>
<!-- Generator: Adobe Illustrator 24.1.2, SVG Export Plug-In . SVG Version: 6.00 Build 0)  -->
<svg version="1.1" id="Layer_1" xmlns="http://www.w3.org/2000/svg" xmlns:xlink="http://www.w3.org/1999/xlink" x="0px" y="0px"
	 viewBox="0 0 40 40" style="enable-background:new 0 0 40 40;" xml:space="preserve">
<style type="text/css">
	.st0{fill:#632069;}
</style>
<g>
	<path class="st0" d="M28.9,39c-0.3-0.5-0.8-0.5-1.2-0.7c-2.3-1.1-3.9-2.9-4.7-5.4c-0.2-0.8,0-0.9,0.7-0.9c2.1,0,4.2,0,6.3,0
		c0.3,0.4-0.2,0.6-0.2,0.9c-0.1,0.5,0.1,0.9,0.6,1.2c0.4,0.3,0.8,0.2,1.2-0.1c0.2-0.2,0.4-0.4,0.6-0.6c2.9-2.9,2.9-2.4,0-5.3
		c-0.5-0.5-1-1.2-1.8-0.7c-1,0.5-0.6,1.3-0.2,2.1c-2.2,0-4.4,0-6.5,0c-0.8,0-0.9-0.2-0.7-1c0.9-3.3,4.1-5.9,7.7-5.9
		c3.6-0.1,6.9,2.3,8,5.7c0.1,0.3,0,0.7,0.3,0.9c0,1.1,0,2.1,0,3.2c-0.7,1.5-1.4,3.1-2.7,4.3c-1.1,1-2.5,1.4-3.7,2.1
		C31.4,39,30.1,39,28.9,39z"/>
	<path class="st0" d="M21,34.4c-4.8,0-9.5,0.1-14.2,0C4.2,34.3,2.1,32,2,29.3c0-4.9,0-9.8,0-14.7c0-0.7,0.2-1,1-1
		c8.6,0,17.2,0,25.8,0c0.8,0,1,0.2,1,1c0,1.7,0,3.5,0,5.2c0,0.5-0.1,0.8-0.7,1C22.2,22.8,19.5,27.3,21,34.4z M8.9,22.8
		c1.2,0,2.3-1,2.4-2.2c0.1-1.2-0.9-2.3-2.2-2.4s-2.4,1-2.4,2.3C6.6,21.7,7.6,22.8,8.9,22.8z M15.8,18.2c-1.2,0-2.3,1.1-2.2,2.3
		c0,1.2,1,2.3,2.3,2.3s2.4-1.1,2.3-2.4C18.1,19.2,17.1,18.2,15.8,18.2z M11.3,27.4c0-1.2-1-2.3-2.3-2.3c-1.2,0-2.3,1-2.3,2.2
		c0,1.3,1.1,2.4,2.4,2.4C10.2,29.7,11.3,28.7,11.3,27.4z"/>
	<path class="st0" d="M15.8,11.3c-4.2,0-8.5,0-12.7,0c-1,0-1.1-0.3-0.8-1.1C2.9,8.6,4,7.4,5.6,7c0.9-0.3,1.1-0.7,1.1-1.5
		c-0.1-0.8,0-1.5,0-2.3c0-0.7,0.5-1.1,1.1-1.1c0.7,0,1,0.4,1.1,1.1c0,0.2,0,0.5,0,0.7c0,2.8,0,2.8,2.8,2.8s5.7,0,8.5,0
		c2.6,0,2.6,0,2.6-2.5c0-0.3,0-0.7,0-1c0.1-0.7,0.5-1.1,1.1-1.1c0.7,0,1.2,0.5,1.1,1.1c-0.4,2.4,0.3,4,2.7,4.7
		C28,8,28.3,8.4,28.5,8.7c0.5,0.7,1.2,1.6,1,2.3c-0.3,0.7-1.4,0.3-2.1,0.3C23.6,11.3,19.7,11.3,15.8,11.3z"/>
</g>
</svg>
